<svg xmlns="http://www.w3.org/2000/svg" width="11" height="11" viewBox="0 0 11 11">
  <g id="Groupe_128" data-name="Groupe 128" transform="translate(-522 -824)">
    <circle id="Ellipse_298" data-name="Ellipse 298" cx="5.5" cy="5.5" r="5.5" transform="translate(522 824)" fill="#00dc1d"/>
    <path id="Tracé_64" data-name="Tracé 64" d="M1.608-4.656a2,2,0,0,0-.544.072A3.114,3.114,0,0,0,.5-4.352l-.336-.9A2.5,2.5,0,0,1,.9-5.564a3.363,3.363,0,0,1,.832-.108,2.245,2.245,0,0,1,.844.136,1.446,1.446,0,0,1,.524.344,1.177,1.177,0,0,1,.268.456,1.611,1.611,0,0,1,.076.472,1.2,1.2,0,0,1-.068.412A1.692,1.692,0,0,1,3.2-3.5a2.145,2.145,0,0,1-.24.3q-.136.144-.264.272-.1.1-.2.2a1.9,1.9,0,0,0-.188.228,1.375,1.375,0,0,0-.14.252.681.681,0,0,0-.056.268v.1a.689.689,0,0,0,.008.112H1.064a1.159,1.159,0,0,1-.02-.18q0-.1,0-.172a1.357,1.357,0,0,1,.056-.4,1.587,1.587,0,0,1,.148-.336,1.9,1.9,0,0,1,.212-.292q.12-.136.248-.264.184-.184.336-.364a.62.62,0,0,0,.152-.412.43.43,0,0,0-.148-.328A.624.624,0,0,0,1.608-4.656ZM2.352-.632a.672.672,0,0,1-.228.544A.78.78,0,0,1,1.608.1a.78.78,0,0,1-.516-.192A.672.672,0,0,1,.864-.632a.672.672,0,0,1,.228-.544.78.78,0,0,1,.516-.192.78.78,0,0,1,.516.192A.672.672,0,0,1,2.352-.632Z" transform="translate(525.84 832.671)" fill="#fff"/>
  </g>
</svg>
