<svg xmlns="http://www.w3.org/2000/svg" viewBox="0 0 628.3 128.31"><defs><style>.cls-1{fill:#fff;}</style></defs><title>Fichier 17</title><g id="Calque_2" data-name="Calque 2"><g id="femme_3_-_copie" data-name="femme 3 - copie"><path class="cls-1" d="M31.23,79.41a30.42,30.42,0,0,0,7.33-.74,13.56,13.56,0,0,0,4.65-2,6.78,6.78,0,0,0,2.42-3,10.71,10.71,0,0,0,.67-3.9q0-4.57-4.31-7.61t-14.8-6.52c-3.05-1.08-6.11-2.31-9.15-3.71a33.13,33.13,0,0,1-8.21-5.24A25.09,25.09,0,0,1,3.9,39,24.06,24.06,0,0,1,1.62,28,27.13,27.13,0,0,1,4,16.35,24.79,24.79,0,0,1,10.9,7.54,31.25,31.25,0,0,1,21.67,2,48.38,48.38,0,0,1,35.94,0,57.12,57.12,0,0,1,63.53,6.46L57.47,23a57.91,57.91,0,0,0-8.68-3.56A37.67,37.67,0,0,0,37.28,17.9q-7.53,0-10.83,2.09a7,7,0,0,0-3.3,6.39,7.39,7.39,0,0,0,1.21,4.31,11.85,11.85,0,0,0,3.43,3.16,30.17,30.17,0,0,0,5.12,2.56c1.93.76,4.06,1.55,6.39,2.35q7.28,2.7,12.65,5.32A33.71,33.71,0,0,1,60.9,50.2a22.27,22.27,0,0,1,5.32,8.21A33.16,33.16,0,0,1,68,69.85q0,13.07-9.15,20.26t-27.59,7.2a77,77,0,0,1-11.18-.74,71,71,0,0,1-8.81-1.82,49,49,0,0,1-6.6-2.29A48.14,48.14,0,0,1,0,90.18L5.92,73.49a52.88,52.88,0,0,0,10.3,4.1A53.41,53.41,0,0,0,31.23,79.41Z"/><path class="cls-1" d="M140.38,2.15h21V95.43h-21V55.86H105.12V95.43h-21V2.15h21V37.82h35.26Z"/><path class="cls-1" d="M245.48,95.43c-1-3.25-2.15-6.57-3.34-10s-2.39-6.82-3.57-10.2H202.14L198.6,85.47q-1.78,5.13-3.31,10h-21.8q5.26-15.08,10-27.86t9.24-24.1q4.53-11.3,8.91-21.46t9.12-19.86h19.9q4.6,9.69,9.06,19.86t9,21.46q4.53,11.31,9.26,24.1t10,27.86ZM220.26,23.28q-.7,2-2.06,5.53t-3.08,8.08q-1.73,4.59-3.86,10.1t-4.34,11.56h26.67q-2.15-6.07-4.15-11.6t-3.81-10.11c-1.21-3.06-2.26-5.75-3.17-8.08S220.82,24.61,220.26,23.28Z"/><path class="cls-1" d="M334.93,95.43q-2.83-4.56-6.68-9.84T320,74.93q-4.44-5.37-9.3-10.3A100.13,100.13,0,0,0,301,55.92V95.43H280V2.15h21V37.21Q309,28.71,317.4,19.42T332.83,2.15h24.91Q348.23,13.49,338.59,24T318.31,45A160.33,160.33,0,0,1,339.9,67.17a275.78,275.78,0,0,1,20,28.26Z"/><path class="cls-1" d="M438,95.43c-1-3.25-2.16-6.57-3.35-10s-2.39-6.82-3.57-10.2H394.6q-1.77,5.1-3.54,10.23t-3.31,10H366q5.26-15.08,10-27.86t9.25-24.1q4.51-11.3,8.91-21.46t9.11-19.86h19.91q4.59,9.69,9.05,19.86t9,21.46q4.53,11.31,9.26,24.1t10,27.86ZM412.72,23.28q-.71,2-2.05,5.53c-.91,2.34-1.93,5-3.09,8.08s-2.44,6.43-3.86,10.1-2.87,7.53-4.34,11.56h26.67q-2.15-6.07-4.15-11.6c-1.33-3.68-2.61-7.05-3.81-10.11s-2.26-5.75-3.17-8.08S413.28,24.61,412.72,23.28Z"/><path class="cls-1" d="M541.46,16.69q-4.32,4.44-10.24,11.51T519,43.61Q512.64,52,506.45,60.84t-11,17h47.53V95.43H469.58V82.91q3.78-6.87,9.22-15.28t11.38-17q5.93-8.54,12-16.55T513.6,19.79H471.74V2.15h69.72Z"/><path class="cls-1" d="M625.3,16.69Q621,21.13,615.07,28.2T602.82,43.61Q596.49,52,590.29,60.84t-11,17h47.53V95.43H553.43V82.91q3.77-6.87,9.22-15.28t11.37-17q5.93-8.54,12.05-16.55t11.37-14.33H555.58V2.15H625.3Z"/><rect x="438.26" y="108.83" width="190.04" height="19.47"/></g></g></svg>